<svg width="31" height="30" viewBox="0 0 31 30" fill="none" xmlns="http://www.w3.org/2000/svg">
<rect x="0.0487213" width="30" height="30" rx="5" fill="#15101C"/>
<path d="M22.6112 8.125H7.48622C7.30388 8.125 7.12902 8.19743 7.00009 8.32636C6.87115 8.4553 6.79872 8.63016 6.79872 8.8125C6.79872 8.99484 6.87115 9.1697 7.00009 9.29864C7.12902 9.42757 7.30388 9.5 7.48622 9.5H8.17372V21.875C8.17372 22.2397 8.31859 22.5894 8.57645 22.8473C8.83431 23.1051 9.18405 23.25 9.54872 23.25H20.5487C20.9134 23.25 21.2631 23.1051 21.521 22.8473C21.7789 22.5894 21.9237 22.2397 21.9237 21.875V9.5H22.6112C22.7936 9.5 22.9684 9.42757 23.0974 9.29864C23.2263 9.1697 23.2987 8.99484 23.2987 8.8125C23.2987 8.63016 23.2263 8.4553 23.0974 8.32636C22.9684 8.19743 22.7936 8.125 22.6112 8.125ZM20.5487 21.875H9.54872V9.5H20.5487V21.875ZM10.9237 6.0625C10.9237 5.88016 10.9962 5.7053 11.1251 5.57636C11.254 5.44743 11.4289 5.375 11.6112 5.375H18.4862C18.6686 5.375 18.8434 5.44743 18.9724 5.57636C19.1013 5.7053 19.1737 5.88016 19.1737 6.0625C19.1737 6.24484 19.1013 6.4197 18.9724 6.54864C18.8434 6.67757 18.6686 6.75 18.4862 6.75H11.6112C11.4289 6.75 11.254 6.67757 11.1251 6.54864C10.9962 6.4197 10.9237 6.24484 10.9237 6.0625Z" fill="#9E78CF"/>
</svg>
